<svg width="30" height="26" viewBox="0 0 30 26" fill="none" xmlns="http://www.w3.org/2000/svg">
<path d="M4 17.3333C2.88889 17.3333 1.94444 16.9444 1.16667 16.1667C0.388889 15.3889 0 14.4444 0 13.3333C0 12.2222 0.388889 11.2778 1.16667 10.5C1.94444 9.72222 2.88889 9.33333 4 9.33333V6.66667C4 5.93333 4.26111 5.30556 4.78333 4.78333C5.30556 4.26111 5.93333 4 6.66667 4H10.6667C10.6667 2.88889 11.0556 1.94444 11.8333 1.16667C12.6111 0.388889 13.5556 0 14.6667 0C15.7778 0 16.7222 0.388889 17.5 1.16667C18.2778 1.94444 18.6667 2.88889 18.6667 4H22.6667C23.4 4 24.0278 4.26111 24.55 4.78333C25.0722 5.30556 25.3333 5.93333 25.3333 6.66667V9.33333C26.4444 9.33333 27.3889 9.72222 28.1667 10.5C28.9444 11.2778 29.3333 12.2222 29.3333 13.3333C29.3333 14.4444 28.9444 15.3889 28.1667 16.1667C27.3889 16.9444 26.4444 17.3333 25.3333 17.3333V22.6667C25.3333 23.4 25.0722 24.0278 24.55 24.55C24.0278 25.0722 23.4 25.3333 22.6667 25.3333H6.66667C5.93333 25.3333 5.30556 25.0722 4.78333 24.55C4.26111 24.0278 4 23.4 4 22.6667V17.3333ZM10.6667 14.6667C11.2222 14.6667 11.6944 14.4722 12.0833 14.0833C12.4722 13.6944 12.6667 13.2222 12.6667 12.6667C12.6667 12.1111 12.4722 11.6389 12.0833 11.25C11.6944 10.8611 11.2222 10.6667 10.6667 10.6667C10.1111 10.6667 9.63889 10.8611 9.25 11.25C8.86111 11.6389 8.66667 12.1111 8.66667 12.6667C8.66667 13.2222 8.86111 13.6944 9.25 14.0833C9.63889 14.4722 10.1111 14.6667 10.6667 14.6667ZM18.6667 14.6667C19.2222 14.6667 19.6944 14.4722 20.0833 14.0833C20.4722 13.6944 20.6667 13.2222 20.6667 12.6667C20.6667 12.1111 20.4722 11.6389 20.0833 11.25C19.6944 10.8611 19.2222 10.6667 18.6667 10.6667C18.1111 10.6667 17.6389 10.8611 17.25 11.25C16.8611 11.6389 16.6667 12.1111 16.6667 12.6667C16.6667 13.2222 16.8611 13.6944 17.25 14.0833C17.6389 14.4722 18.1111 14.6667 18.6667 14.6667ZM9.33333 20H20V17.3333H9.33333V20Z" fill="#6366F1"/>
</svg>
