<svg width="26" height="26" viewBox="0 0 26 26" fill="none" xmlns="http://www.w3.org/2000/svg">
<path d="M5.86463 21.125V19.5H20.1354V21.125H5.86463ZM5.83349 17.6668L4.35826 9.18129C4.32215 9.18815 4.28152 9.19438 4.23639 9.19998C4.19125 9.20557 4.15062 9.20837 4.11451 9.20837C3.71873 9.20837 3.38543 9.07169 3.11459 8.79833C2.84376 8.52479 2.70834 8.19275 2.70834 7.80221C2.70834 7.40571 2.84376 7.0687 3.11459 6.79119C3.38543 6.51385 3.719 6.37519 4.11532 6.37519C4.51146 6.37519 4.8482 6.51385 5.12553 6.79119C5.40304 7.0687 5.5418 7.40571 5.5418 7.80221C5.5418 7.90296 5.53341 7.99658 5.51661 8.08306C5.5 8.16937 5.47364 8.25071 5.43753 8.32708L8.86466 9.78119L12.1667 5.27506C11.989 5.15138 11.8456 4.9887 11.7366 4.78702C11.6275 4.58534 11.573 4.36813 11.573 4.13539C11.573 3.73908 11.7117 3.40216 11.989 3.12464C12.2663 2.84713 12.6031 2.70837 12.9995 2.70837C13.3956 2.70837 13.7326 2.84695 14.0105 3.1241C14.2882 3.40107 14.427 3.73754 14.427 4.1335C14.427 4.37093 14.3725 4.58967 14.2634 4.78973C14.1544 4.9896 14.011 5.15138 13.8334 5.27506L17.1354 9.78119L20.5625 8.32708C20.5347 8.25324 20.5104 8.1719 20.4896 8.08306C20.4687 7.99441 20.4582 7.90079 20.4582 7.80221C20.4582 7.40571 20.5936 7.0687 20.8645 6.79119C21.1353 6.51385 21.4689 6.37519 21.8652 6.37519C22.2613 6.37519 22.5982 6.51385 22.8757 6.79119C23.153 7.0687 23.2917 7.40571 23.2917 7.80221C23.2917 8.19167 23.1527 8.52344 22.8749 8.79752C22.597 9.07142 22.2595 9.20837 21.8625 9.20837C21.8307 9.20837 21.795 9.20386 21.7552 9.19483C21.7157 9.1858 21.6767 9.18129 21.6382 9.18129L20.1665 17.6668H5.83349ZM7.21663 16.0418H18.7834L19.8001 10.4561L16.5812 11.7959L13 6.88137L9.41878 11.7959L6.19993 10.4561L7.21663 16.0418Z" fill="#E3E3E3"/>
</svg>
