<svg width="15" height="15" viewBox="0 0 15 15" fill="none" xmlns="http://www.w3.org/2000/svg">
<path d="M7.5 15V12.6938L11.6438 8.56875C11.7563 8.45625 11.8813 8.375 12.0188 8.325C12.1562 8.275 12.2937 8.25 12.4312 8.25C12.5812 8.25 12.725 8.27813 12.8625 8.33438C13 8.39062 13.125 8.475 13.2375 8.5875L13.9312 9.28125C14.0312 9.39375 14.1094 9.51875 14.1656 9.65625C14.2219 9.79375 14.25 9.93125 14.25 10.0688C14.25 10.2063 14.225 10.3469 14.175 10.4906C14.125 10.6344 14.0437 10.7625 13.9312 10.875L9.80625 15H7.5ZM13.125 10.0688L12.4312 9.375L13.125 10.0688ZM8.625 13.875H9.3375L11.6062 11.5875L11.2688 11.2312L10.9125 10.8938L8.625 13.1625V13.875ZM1.5 15C1.0875 15 0.734375 14.8531 0.440625 14.5594C0.146875 14.2656 0 13.9125 0 13.5V1.5C0 1.0875 0.146875 0.734375 0.440625 0.440625C0.734375 0.146875 1.0875 0 1.5 0H7.5L12 4.5V6.75H10.5V5.25H6.75V1.5H1.5V13.5H6V15H1.5ZM11.2688 11.2312L10.9125 10.8938L11.6062 11.5875L11.2688 11.2312Z" fill="white"/>
</svg>
