<svg width="27" height="27" viewBox="0 0 27 27" fill="none" xmlns="http://www.w3.org/2000/svg">
<path fill-rule="evenodd" clip-rule="evenodd" d="M21.6 10.8C21.6 6.08085 18.5805 1.9458 14.0872 0.5112C13.8501 0.43425 13.5968 0.56565 13.5211 0.80235C13.4455 1.0395 13.5765 1.2924 13.8132 1.368C17.9325 2.6838 20.7 6.47415 20.7 10.8C20.7 16.259 16.2589 20.7 10.8 20.7C5.34105 20.7 0.9 16.259 0.9 10.8C0.9 6.47415 3.6675 2.68335 7.7868 1.368C8.0235 1.2924 8.15445 1.0395 8.07885 0.8028C8.0028 0.56565 7.749 0.43335 7.5132 0.5112C3.01905 1.9458 0 6.08085 0 10.8C0 16.7549 4.84515 21.6 10.8 21.6C16.7549 21.6 21.6 16.7549 21.6 10.8ZM3.4434 6.42285C3.22425 6.30675 2.95155 6.3909 2.835 6.61005C2.15775 7.8912 1.8 9.3402 1.8 10.8C1.8 15.7626 5.8374 19.8 10.8 19.8C15.7626 19.8 19.8 15.7626 19.8 10.8C19.8 7.0911 17.5689 3.8088 14.116 2.43855C13.8856 2.34765 13.6233 2.46015 13.5315 2.69055C13.4401 2.92185 13.5531 3.1833 13.7839 3.2751C16.8916 4.50855 18.9 7.46235 18.9 10.8C18.9 15.2663 15.2662 18.9 10.8 18.9C6.33375 18.9 2.7 15.2663 2.7 10.8C2.7 9.48645 3.02175 8.18325 3.63105 7.03125C3.74715 6.81165 3.663 6.53895 3.4434 6.42285ZM16.65 14.4C16.8988 14.4 17.1 14.1989 17.1 13.95V7.65C17.1 7.40115 16.8988 7.2 16.65 7.2H13.95C13.7016 7.2 13.5 7.40115 13.5 7.65V16.65C13.5 16.8989 13.7016 17.1 13.95 17.1C14.1988 17.1 14.4 16.8989 14.4 16.65V8.1H16.2V13.95C16.2 14.1989 16.4011 14.4 16.65 14.4ZM9.45 18C9.6984 18 9.9 17.7989 9.9 17.55V0.9H11.7V17.55C11.7 17.7989 11.9016 18 12.15 18C12.3984 18 12.6 17.7989 12.6 17.55V0.45C12.6 0.20115 12.3984 0 12.15 0H9.45C9.2016 0 9 0.20115 9 0.45V17.55C9 17.7989 9.2016 18 9.45 18ZM7.65 3.6H4.95C4.7016 3.6 4.5 3.80115 4.5 4.05V13.95C4.5 14.1989 4.7016 14.4 4.95 14.4C5.1984 14.4 5.4 14.1989 5.4 13.95V4.5H7.2V16.65C7.2 16.8989 7.4016 17.1 7.65 17.1C7.8984 17.1 8.1 16.8989 8.1 16.65V4.05C8.1 3.80115 7.8984 3.6 7.65 3.6ZM20.372 17.8268C20.1964 18.0027 20.1964 18.2875 20.372 18.4631L21.3269 19.418C21.4146 19.5062 21.5298 19.5498 21.645 19.5498C21.7597 19.5498 21.8749 19.5062 21.9631 19.418C22.1386 19.2425 22.1386 18.9576 21.9631 18.7817L21.0087 17.8268C20.8328 17.6513 20.5479 17.6513 20.372 17.8268ZM27 24.75C27 25.3512 26.7655 25.9164 26.3407 26.3408C25.9024 26.78 25.3256 26.9991 24.7495 26.9991C24.1735 26.9991 23.5975 26.78 23.1593 26.3412L17.8267 21.0092C17.6513 20.8332 17.6513 20.5484 17.8267 20.3724C18.0027 20.1969 18.2875 20.1969 18.463 20.3724L23.7955 25.7049C24.3225 26.231 25.1784 26.2305 25.7044 25.7045C25.9596 25.4498 26.1 25.1109 26.1 24.75C26.1 24.3896 25.9596 24.0507 25.7044 23.7956L22.8699 20.961L21.919 21.9173C21.7435 22.0937 21.4596 22.095 21.2827 21.9191C21.1063 21.7436 21.1054 21.4592 21.281 21.2827L22.5499 20.0065C22.6346 19.922 22.7493 19.8738 22.8685 19.8738C22.9882 19.8738 23.103 19.9215 23.1871 20.0057L26.3407 23.1593C26.7655 23.5841 27 24.1493 27 24.75Z" fill="url(#paint0_linear_187_122)"/>
<defs>
<linearGradient id="paint0_linear_187_122" x1="13.5" y1="0" x2="13.5" y2="26.9991" gradientUnits="userSpaceOnUse">
<stop stop-color="#159FF5"/>
<stop offset="1" stop-color="#0D669E"/>
</linearGradient>
</defs>
</svg>
