<svg width="60" height="60" viewBox="0 0 60 60" fill="none" xmlns="http://www.w3.org/2000/svg">
<path d="M29.9894 0C13.4541 0 0 13.4541 0 30C0 46.5459 13.4576 60 30 60C46.5459 60 60 46.5459 60 30C60 13.4541 46.5459 0 29.9894 0ZM30 52.9412C17.3506 52.9412 7.05882 42.6494 7.05882 30C7.05882 17.3506 17.3435 7.05882 30 7.05882C42.6494 7.05882 52.9412 17.3506 52.9412 30C52.9412 42.6494 42.6494 52.9412 30 52.9412Z" fill="url(#paint0_linear_72_3211)"/>
<path d="M41.8163 26.58C41.9928 26.5447 42.1587 26.4706 42.3528 26.4706H45.4551C44.1034 20.5517 39.4587 15.9 33.5293 14.5482V17.647C33.5293 19.5917 31.9445 21.1764 29.9998 21.1764C28.2457 21.1764 26.8516 19.867 26.5798 18.1906C26.5481 18.007 26.4704 17.8411 26.4704 17.647V14.5411C20.5481 15.8894 15.8928 20.5482 14.541 26.4706H17.6469C17.8375 26.4706 18.0034 26.5447 18.1869 26.58C19.8669 26.8482 21.1763 28.2458 21.1763 30C21.1763 31.7541 19.8669 33.1517 18.1904 33.42C18.0069 33.4553 17.841 33.5294 17.6469 33.5294H14.5481C15.9034 39.4482 20.5551 44.1 26.4704 45.4553V42.3529C26.4704 42.1588 26.5481 41.9929 26.5798 41.8094C26.8516 40.1294 28.2457 38.8235 29.9998 38.8235C31.754 38.8235 33.1516 40.1329 33.4198 41.8164C33.4551 41.9929 33.5293 42.1588 33.5293 42.3529V45.4553C39.4481 44.1035 44.1034 39.4482 45.4551 33.5294H42.3528C42.1587 33.5294 41.9928 33.4553 41.8163 33.42C40.1328 33.1517 38.8234 31.7541 38.8234 30C38.8234 28.2458 40.1328 26.8482 41.8163 26.58ZM40.2422 36.6988C39.3104 38.107 38.1104 39.3106 36.6987 40.2353C35.7951 37.3764 33.1551 35.2906 30.0034 35.2906C26.8516 35.2906 24.2081 37.38 23.3045 40.2353C21.8928 39.3106 20.6928 38.107 19.7645 36.6988C22.6234 35.7953 24.7093 33.1482 24.7093 30C24.7093 26.8411 22.6198 24.2011 19.761 23.3011C20.6893 21.8929 21.8893 20.6894 23.3045 19.7647C24.2081 22.6235 26.8516 24.7094 30.0034 24.7094C33.1587 24.7094 35.8057 22.6164 36.7057 19.7576C38.114 20.6894 39.3175 21.8894 40.2422 23.3011C37.3834 24.2047 35.2975 26.8517 35.2975 30C35.294 33.1517 37.3834 35.7988 40.2422 36.6988Z" fill="url(#paint1_linear_72_3211)"/>
<defs>
<linearGradient id="paint0_linear_72_3211" x1="30" y1="0" x2="30" y2="60" gradientUnits="userSpaceOnUse">
<stop stop-color="#16A5FF"/>
<stop offset="1" stop-color="#0D6399"/>
</linearGradient>
<linearGradient id="paint1_linear_72_3211" x1="29.9981" y1="14.5411" x2="29.9981" y2="45.4553" gradientUnits="userSpaceOnUse">
<stop stop-color="#16A5FF"/>
<stop offset="1" stop-color="#0D6399"/>
</linearGradient>
</defs>
</svg>
