<svg width="26" height="27" viewBox="0 0 26 27" fill="none" xmlns="http://www.w3.org/2000/svg">
<path fill-rule="evenodd" clip-rule="evenodd" d="M20.3788 2.07956C22.1824 2.44597 23.5922 3.8781 23.9529 5.71018C24.0648 6.27879 24.6093 6.6475 25.169 6.5338C25.7287 6.42005 26.0917 5.86698 25.9797 5.29842C25.4554 2.6351 23.406 0.553255 20.7842 0.0206018C20.2245 -0.0931519 19.68 0.275616 19.568 0.844174C19.4561 1.41273 19.8191 1.96586 20.3788 2.07956ZM19.1199 5.06939C20.1636 5.06939 21.0096 5.92887 21.0096 6.98903C21.0096 7.56887 21.4723 8.0389 22.0431 8.0389C22.6139 8.0389 23.0767 7.56887 23.0767 6.98903C23.0767 4.76918 21.3052 2.96964 19.1199 2.96964C18.5491 2.96964 18.0864 3.43972 18.0864 4.01952C18.0864 4.59936 18.5491 5.06939 19.1199 5.06939Z" fill="url(#paint0_linear_187_81)"/>
<path fill-rule="evenodd" clip-rule="evenodd" d="M13.3565 4.47025C13.3575 4.44863 13.3581 4.42684 13.3581 4.4049C13.3581 3.71162 12.8144 3.14962 12.1437 3.14962C11.473 3.14962 10.9294 3.71162 10.9294 4.4049C10.9294 4.42684 10.9299 4.44868 10.931 4.47031C6.8657 5.07603 3.04043 9.80198 3.64317 15.0748C3.95534 16.6883 2.97237 17.5432 1.9493 18.4329C0.982503 19.2737 -0.0201554 20.1456 0.000308035 21.7184C0.000308035 23.9226 1.21437 25.1171 2.99743 25.7094C2.99743 25.7094 6.26301 27 12.1439 27C18.0248 27 21.2903 25.7094 21.2903 25.7094C23.0733 25.1171 24.2877 23.8618 24.2875 21.7184C24.2873 20.132 23.2852 19.2598 22.3238 18.4229C21.3052 17.5362 20.3322 16.6893 20.6446 15.0748C21.2473 9.80182 17.4219 5.07577 13.3565 4.47025ZM5.0798 18.09C5.64544 17.1654 5.91555 16.0542 5.689 14.7653C5.46034 12.5924 6.19361 10.5066 7.44431 8.94854C8.73046 7.34633 10.3873 6.50464 11.8026 6.50464H12.4851C13.9004 6.50464 15.5573 7.34633 16.8435 8.94854C18.0941 10.5066 18.8274 12.5923 18.5988 14.7651C18.3732 16.0478 18.6363 17.1557 19.1991 18.081C19.6974 18.9004 20.4053 19.5175 20.8672 19.9201L20.8919 19.9416C22.008 20.9148 22.2204 21.1911 22.2204 21.7186C22.2205 22.3611 22.049 22.7277 21.8557 22.9686C21.6423 23.2344 21.2703 23.5069 20.6478 23.7137L20.5938 23.7317L20.548 23.7498L20.5401 23.7527C20.5273 23.7575 20.5022 23.7667 20.4649 23.7798C20.3903 23.8059 20.2668 23.8475 20.0957 23.8995C19.7534 24.0035 19.2208 24.1494 18.5079 24.2976C17.0824 24.5941 14.9348 24.9003 12.1439 24.9003C9.35289 24.9003 7.20536 24.5941 5.77984 24.2976C5.06693 24.1494 4.53436 24.0035 4.19212 23.8995C4.02097 23.8475 3.89746 23.8059 3.82284 23.7798C3.78554 23.7667 3.76042 23.7575 3.74771 23.7527L3.74006 23.7499L3.69397 23.7317L3.63996 23.7137C2.99397 23.4991 2.62857 23.2332 2.42471 22.9821C2.24483 22.7606 2.06733 22.4026 2.06733 21.7184V21.7045L2.06712 21.6906C2.06076 21.2008 2.24819 20.9386 3.37916 19.9535L3.40427 19.9316C3.86853 19.5274 4.5787 18.9089 5.0798 18.09Z" fill="url(#paint1_linear_187_81)"/>
<defs>
<linearGradient id="paint0_linear_187_81" x1="13" y1="0" x2="13" y2="27" gradientUnits="userSpaceOnUse">
<stop stop-color="#16A5FF"/>
<stop offset="1" stop-color="#0D6399"/>
</linearGradient>
<linearGradient id="paint1_linear_187_81" x1="13" y1="0" x2="13" y2="27" gradientUnits="userSpaceOnUse">
<stop stop-color="#16A5FF"/>
<stop offset="1" stop-color="#0D6399"/>
</linearGradient>
</defs>
</svg>
