<svg width="60" height="60" viewBox="0 0 60 60" fill="none" xmlns="http://www.w3.org/2000/svg">
<path d="M51.21 8.79L46.965 13.035C51.315 17.37 54 23.37 54 30C54 43.26 43.26 54 30 54C16.74 54 6 43.26 6 30C6 17.76 15.165 7.68 27 6.21V12.27C18.495 13.695 12 21.09 12 30C12 39.945 20.055 48 30 48C39.945 48 48 39.945 48 30C48 25.035 45.99 20.535 42.735 17.265L38.49 21.51C40.65 23.685 42 26.685 42 30C42 36.63 36.63 42 30 42C23.37 42 18 36.63 18 30C18 24.42 21.84 19.755 27 18.42V24.825C25.215 25.86 24 27.78 24 30C24 33.315 26.685 36 30 36C33.315 36 36 33.315 36 30C36 27.78 34.785 25.875 33 24.825V0H30C13.425 0 0 13.425 0 30C0 46.56 13.425 60 30 60C46.56 60 60 46.56 60 30C60 21.72 56.64 14.22 51.21 8.79Z" fill="url(#paint0_linear_72_3224)"/>
<defs>
<linearGradient id="paint0_linear_72_3224" x1="30" y1="0" x2="30" y2="60" gradientUnits="userSpaceOnUse">
<stop stop-color="#16A5FF"/>
<stop offset="1" stop-color="#0D6399"/>
</linearGradient>
</defs>
</svg>
