<svg width="20" height="20" viewBox="0 0 20 20" fill="none" xmlns="http://www.w3.org/2000/svg">
<path d="M14.275 17.25L17.75 13.8L16.7 12.75L14.275 15.125L13.3 14.15L12.25 15.225L14.275 17.25ZM3 6H15V4H3V6ZM15 20C13.6167 20 12.4375 19.5125 11.4625 18.5375C10.4875 17.5625 10 16.3833 10 15C10 13.6167 10.4875 12.4375 11.4625 11.4625C12.4375 10.4875 13.6167 10 15 10C16.3833 10 17.5625 10.4875 18.5375 11.4625C19.5125 12.4375 20 13.6167 20 15C20 16.3833 19.5125 17.5625 18.5375 18.5375C17.5625 19.5125 16.3833 20 15 20ZM0 19V2C0 1.45 0.195833 0.979167 0.5875 0.5875C0.979167 0.195833 1.45 0 2 0H16C16.55 0 17.0208 0.195833 17.4125 0.5875C17.8042 0.979167 18 1.45 18 2V8.675C17.6833 8.525 17.3583 8.4 17.025 8.3C16.6917 8.2 16.35 8.125 16 8.075V2H2V16.05H8.075C8.15833 16.5667 8.2875 17.0583 8.4625 17.525C8.6375 17.9917 8.86667 18.4333 9.15 18.85L9 19L7.5 17.5L6 19L4.5 17.5L3 19L1.5 17.5L0 19ZM3 14H8.075C8.125 13.65 8.2 13.3083 8.3 12.975C8.4 12.6417 8.525 12.3167 8.675 12H3V14ZM3 10H10.1C10.7333 9.38333 11.4708 8.89583 12.3125 8.5375C13.1542 8.17917 14.05 8 15 8H3V10ZM2 16.05V2C2 3.96667 2 6.13333 2 8.5C2 10.8667 2 13.0333 2 15C2 15.1833 2 15.3583 2 15.525C2 15.6917 2 15.8667 2 16.05Z" fill="#5E5E5E"/>
</svg>
