<svg width="18" height="18" viewBox="0 0 18 18" fill="none" xmlns="http://www.w3.org/2000/svg">
<path d="M8.99893 18C6.49964 18 4.375 17.125 2.625 15.375C0.875 13.625 0 11.5 0 9C0 6.5 0.874375 4.375 2.62312 2.625C4.37187 0.875 6.49536 0 8.99357 0C9.22679 0 9.4558 0.00892857 9.68062 0.0267857C9.90545 0.0446429 10.1339 0.0714286 10.3661 0.107143C9.66964 0.625 9.11607 1.26786 8.70536 2.03571C8.29464 2.80357 8.08929 3.625 8.08929 4.5C8.08929 6.01786 8.61161 7.29911 9.65625 8.34375C10.7009 9.38839 11.9821 9.91071 13.5 9.91071C14.375 9.91071 15.1964 9.70536 15.9643 9.29464C16.7321 8.88393 17.375 8.33036 17.8929 7.63393C17.9286 7.86607 17.9554 8.09455 17.9732 8.31938C17.9911 8.5442 18 8.77321 18 9.00643C18 11.5046 17.1246 13.6281 15.3739 15.3769C13.6232 17.1256 11.4982 18 8.99893 18ZM9 16.0714C10.4643 16.0714 11.7927 15.6512 12.9852 14.8106C14.1775 13.9699 15.0545 12.8723 15.6161 11.5179C15.2589 11.6071 14.9047 11.683 14.5535 11.7455C14.2024 11.808 13.8512 11.8393 13.5 11.8393C11.4668 11.8393 9.73527 11.1244 8.30545 9.69455C6.87563 8.26473 6.16071 6.53321 6.16071 4.5C6.16071 4.14875 6.19196 3.79759 6.25446 3.44652C6.31696 3.09527 6.39286 2.74107 6.48214 2.38393C5.12768 2.94554 4.03009 3.8225 3.18938 5.01482C2.34884 6.20732 1.92857 7.53571 1.92857 9C1.92857 10.9643 2.61607 12.6339 3.99107 14.0089C5.36607 15.3839 7.03571 16.0714 9 16.0714Z" fill="#5E5E5E"/>
</svg>
