<svg width="14" height="17" viewBox="0 0 14 17" fill="none" xmlns="http://www.w3.org/2000/svg">
<path d="M6.66667 10C7.125 10 7.51736 9.83681 7.84375 9.51042C8.17014 9.18403 8.33333 8.79167 8.33333 8.33333C8.33333 7.875 8.17014 7.48264 7.84375 7.15625C7.51736 6.82986 7.125 6.66667 6.66667 6.66667C6.20833 6.66667 5.81597 6.82986 5.48958 7.15625C5.16319 7.48264 5 7.875 5 8.33333C5 8.79167 5.16319 9.18403 5.48958 9.51042C5.81597 9.83681 6.20833 10 6.66667 10ZM3.33333 13.3333H10V12.8542C10 12.5208 9.90972 12.2153 9.72917 11.9375C9.54861 11.6597 9.29861 11.4514 8.97917 11.3125C8.61806 11.1597 8.24653 11.0417 7.86458 10.9583C7.48264 10.875 7.08333 10.8333 6.66667 10.8333C6.25 10.8333 5.85069 10.875 5.46875 10.9583C5.08681 11.0417 4.71528 11.1597 4.35417 11.3125C4.03472 11.4514 3.78472 11.6597 3.60417 11.9375C3.42361 12.2153 3.33333 12.5208 3.33333 12.8542V13.3333ZM11.6667 16.6667H1.66667C1.20833 16.6667 0.815972 16.5035 0.489583 16.1771C0.163194 15.8507 0 15.4583 0 15V1.66667C0 1.20833 0.163194 0.815972 0.489583 0.489583C0.815972 0.163194 1.20833 0 1.66667 0H8.33333L13.3333 5V15C13.3333 15.4583 13.1701 15.8507 12.8438 16.1771C12.5174 16.5035 12.125 16.6667 11.6667 16.6667ZM11.6667 15V5.70833L7.625 1.66667H1.66667V15H11.6667ZM1.66667 15V1.66667V5.70833V15Z" fill="#5E5E5E"/>
</svg>
