<svg width="13" height="17" viewBox="0 0 13 17" fill="none" xmlns="http://www.w3.org/2000/svg">
<path fill-rule="evenodd" clip-rule="evenodd" d="M10.4025 7.08949C11.0803 7.96013 11.4856 9.06122 11.4856 10.259C11.4856 11.4567 11.0679 12.5914 10.3723 13.467L10.3121 13.5426L10.2963 13.4467C10.2827 13.3654 10.2669 13.2828 10.2484 13.2001C9.89994 11.6339 8.7648 10.2912 6.89641 9.20341C5.63461 8.47075 4.91231 7.5896 4.72267 6.58728C4.60012 5.93937 4.69117 5.28867 4.86713 4.73112C5.04308 4.17427 5.30461 3.70707 5.52712 3.4262L6.25421 2.51703C6.38156 2.35733 6.6205 2.35733 6.74784 2.51703L10.4031 7.08949H10.4025ZM11.552 6.18102L6.68006 0.0872045C6.58695 -0.0290682 6.41305 -0.0290682 6.31994 0.0872045L1.4487 6.18102L1.43296 6.20134C0.53676 7.33954 0 8.78595 0 10.3605C0 14.0273 2.91042 17 6.5 17C10.0896 17 13 14.0273 13 10.3605C13 8.78595 12.4632 7.33954 11.567 6.20204L11.5513 6.18173L11.552 6.18102ZM2.61465 7.06988L3.05008 6.52424L3.06309 6.6251C3.07336 6.70495 3.08637 6.7848 3.10143 6.86535C3.38351 8.379 4.39062 9.64049 6.07415 10.6176C7.53792 11.47 8.3903 12.4499 8.6354 13.5244C8.7381 13.9727 8.7559 14.414 8.7114 14.7999L8.70866 14.8237L8.68743 14.8342C8.02675 15.1641 7.28392 15.3498 6.49932 15.3498C3.74637 15.3498 1.51443 13.0705 1.51443 10.2583C1.51443 9.05072 1.9259 7.94192 2.61328 7.06847L2.61465 7.06988Z" fill="#298DFF"/>
</svg>
