<svg width="22" height="22" viewBox="0 0 22 22" fill="none" xmlns="http://www.w3.org/2000/svg">
<path d="M11.9668 17.6719V22.0498H10.0332V17.6719H11.9668ZM5.63672 15.1396L6.88379 16.3369L6.91992 16.3711L6.88574 16.4072L4.39062 19.0547L4.35645 19.0908L4.32031 19.0576L2.89453 17.7334L2.85547 17.6973L2.89355 17.6602L5.56738 15.1396L5.60254 15.1064L5.63672 15.1396ZM16.4072 15.0635L19.0303 17.6357L19.0664 17.6709L17.6963 19.041L17.6611 19.0049L15.0547 16.3984L15.0889 16.3633L16.3369 15.0645L16.3721 15.0283L16.4072 15.0635ZM11 6.06152C12.3711 6.06152 13.5379 6.54185 14.498 7.50195C15.4581 8.46205 15.9385 9.62887 15.9385 11C15.9385 12.3711 15.4581 13.5379 14.498 14.498C13.5379 15.4581 12.3711 15.9385 11 15.9385C9.62887 15.9385 8.46205 15.4581 7.50195 14.498C6.54185 13.5379 6.06152 12.3711 6.06152 11C6.06152 9.62887 6.54185 8.46205 7.50195 7.50195C8.46205 6.54185 9.62887 6.06152 11 6.06152ZM11 7.99414C10.1643 7.99414 9.45575 8.28644 8.87109 8.87109C8.28644 9.45575 7.99414 10.1643 7.99414 11C7.99414 11.8357 8.28644 12.5443 8.87109 13.1289C9.45575 13.7136 10.1643 14.0059 11 14.0059C11.8357 14.0059 12.5443 13.7136 13.1289 13.1289C13.7136 12.5443 14.0059 11.8357 14.0059 11C14.0059 10.1643 13.7136 9.45575 13.1289 8.87109C12.5443 8.28644 11.8357 7.99414 11 7.99414ZM4.32812 10.0332V11.9668H-0.0498047V10.0332H4.32812ZM22.0498 10.0332V11.9668H17.6719V10.0332H22.0498ZM17.7061 3.01953L19.0049 4.26758L19.041 4.30176L19.0059 4.33789L16.46 6.96094L16.4248 6.99609L16.3887 6.96191L15.0391 5.66309L15.0029 5.62793L15.0391 5.5918L17.6357 3.02051L17.6709 2.98535L17.7061 3.01953ZM4.33887 2.89355L6.93652 5.54102L6.9707 5.57617L6.93652 5.61133L5.66309 6.91016L5.62793 6.94531L5.59277 6.91113L2.96973 4.36426L2.93457 4.33008L2.96777 4.29492L4.2666 2.89453L4.30176 2.85547L4.33887 2.89355ZM11.9668 -0.0498047V4.32812H10.0332V-0.0498047H11.9668Z" fill="#5E5E5E" stroke="#5E5E5E" stroke-width="0.1"/>
</svg>
