<svg width="40" height="38" viewBox="0 0 40 38" fill="none" xmlns="http://www.w3.org/2000/svg">
<path d="M10.0091 9.3885C13.7452 4.01714 20.8852 2.24919 26.6961 5.25662C33.7249 8.89445 35.9144 17.9068 31.338 24.3641L29.2859 27.2596C25.3634 32.7942 17.8478 34.3879 12.0167 30.9216C5.52349 27.0618 3.66919 18.5033 7.98255 12.302L10.0091 9.3885Z" fill="url(#paint0_linear_194_26)"/>
<path d="M14.4599 18.7198C13.3475 17.9019 11.7921 18.1475 10.9858 19.2683C10.1795 20.3892 10.4277 21.9608 11.5401 22.7787L13 20.7493L14.4599 18.7198ZM15.6233 25.781L17.6375 27.2619L20.5573 23.203L18.5432 21.7221L17.0833 23.7515L15.6233 25.781ZM13 20.7493L11.5401 22.7787L15.6233 25.781L17.0833 23.7515L18.5432 21.7221L14.4599 18.7198L13 20.7493Z" fill="#061B53"/>
<path d="M25.6332 16.4382C26.4158 15.3007 26.1348 13.7347 25.0054 12.9405C23.876 12.1462 22.326 12.4244 21.5433 13.5618L23.5883 15L25.6332 16.4382ZM15.3615 22.5458L13.9444 24.6053L18.0342 27.4817L19.4514 25.4221L17.4064 23.984L15.3615 22.5458ZM23.5883 15L21.5433 13.5618L15.3615 22.5458L17.4064 23.984L19.4514 25.4221L25.6332 16.4382L23.5883 15Z" fill="#061B53"/>
<defs>
<linearGradient id="paint0_linear_194_26" x1="24.1176" y1="-0.882353" x2="12.0588" y2="32.9412" gradientUnits="userSpaceOnUse">
<stop stop-color="#E6FFD0"/>
<stop offset="1" stop-color="#2AC375"/>
</linearGradient>
</defs>
</svg>
