<svg width="17" height="14" viewBox="0 0 17 14" fill="none" xmlns="http://www.w3.org/2000/svg">
<path d="M6 10L8.33333 8.25L10.625 10L9.75 7.16667L12.0833 5.33333H9.25L8.33333 2.5L7.41667 5.33333H4.58333L6.875 7.16667L6 10ZM1.66667 13.3333C1.20833 13.3333 0.815972 13.1701 0.489583 12.8438C0.163194 12.5174 0 12.125 0 11.6667V8.85417C0 8.70139 0.0486111 8.56944 0.145833 8.45833C0.243056 8.34722 0.368056 8.27778 0.520833 8.25C0.854167 8.13889 1.12847 7.9375 1.34375 7.64583C1.55903 7.35417 1.66667 7.02778 1.66667 6.66667C1.66667 6.30556 1.55903 5.97917 1.34375 5.6875C1.12847 5.39583 0.854167 5.19444 0.520833 5.08333C0.368056 5.05556 0.243056 4.98611 0.145833 4.875C0.0486111 4.76389 0 4.63194 0 4.47917V1.66667C0 1.20833 0.163194 0.815972 0.489583 0.489583C0.815972 0.163194 1.20833 0 1.66667 0H15C15.4583 0 15.8507 0.163194 16.1771 0.489583C16.5035 0.815972 16.6667 1.20833 16.6667 1.66667V4.47917C16.6667 4.63194 16.6181 4.76389 16.5208 4.875C16.4236 4.98611 16.2986 5.05556 16.1458 5.08333C15.8125 5.19444 15.5382 5.39583 15.3229 5.6875C15.1076 5.97917 15 6.30556 15 6.66667C15 7.02778 15.1076 7.35417 15.3229 7.64583C15.5382 7.9375 15.8125 8.13889 16.1458 8.25C16.2986 8.27778 16.4236 8.34722 16.5208 8.45833C16.6181 8.56944 16.6667 8.70139 16.6667 8.85417V11.6667C16.6667 12.125 16.5035 12.5174 16.1771 12.8438C15.8507 13.1701 15.4583 13.3333 15 13.3333H1.66667ZM1.66667 11.6667H15V9.54167C14.4861 9.23611 14.0799 8.82986 13.7812 8.32292C13.4826 7.81597 13.3333 7.26389 13.3333 6.66667C13.3333 6.06944 13.4826 5.51736 13.7812 5.01042C14.0799 4.50347 14.4861 4.09722 15 3.79167V1.66667H1.66667V3.79167C2.18056 4.09722 2.58681 4.50347 2.88542 5.01042C3.18403 5.51736 3.33333 6.06944 3.33333 6.66667C3.33333 7.26389 3.18403 7.81597 2.88542 8.32292C2.58681 8.82986 2.18056 9.23611 1.66667 9.54167V11.6667Z" fill="#5E5E5E"/>
</svg>
